<?xml version="1.0" standalone="no"?>
<!DOCTYPE svg PUBLIC "-//W3C//DTD SVG 20010904//EN"
 "http://www.w3.org/TR/2001/REC-SVG-20010904/DTD/svg10.dtd">
<svg version="1.0" xmlns="http://www.w3.org/2000/svg"
 width="100.000000pt" height="75.000000pt" viewBox="0 0 100.000000 75.000000"
 preserveAspectRatio="xMidYMid meet">

<g transform="translate(0.000000,75.000000) scale(0.100000,-0.100000)"
fill="#000000" stroke="none">
<path d="M696 605 c4 -8 8 -15 10 -15 2 0 4 7 4 15 0 8 -4 15 -10 15 -5 0 -7
-7 -4 -15z"/>
<path d="M813 573 c-18 -3 -23 -11 -23 -34 0 -24 4 -29 25 -29 22 0 25 4 25
35 0 19 -1 34 -2 34 -2 -1 -13 -4 -25 -6z"/>
<path d="M712 561 c-8 -5 -12 -21 -10 -37 2 -25 8 -29 36 -32 31 -3 32 -2 32
37 0 36 -3 41 -22 41 -13 0 -29 -4 -36 -9z"/>
<path d="M473 530 c-8 -42 -23 -48 -23 -10 0 27 -3 31 -22 28 -22 -3 -23 -8
-26 -95 -2 -55 1 -93 7 -93 28 0 41 14 41 47 0 40 15 37 23 -6 5 -24 10 -28
31 -24 31 6 30 2 10 54 -14 33 -15 47 -5 78 15 50 14 51 -9 51 -15 0 -22 -9
-27 -30z"/>
<path d="M339 533 c-22 -3 -28 -12 -36 -46 l-10 -42 -8 38 c-5 28 -12 37 -22
33 -8 -3 -23 -6 -34 -6 -17 0 -19 -8 -19 -90 0 -90 0 -90 25 -90 25 0 26 1 19
50 -5 34 -3 50 5 50 6 0 11 -10 11 -22 1 -77 35 -93 45 -20 10 70 13 73 14 14
1 -49 3 -53 24 -50 21 3 22 8 25 96 1 50 -1 91 -5 91 -4 -1 -20 -4 -34 -6z"/>
<path d="M137 493 c-59 -9 -74 -88 -21 -111 30 -14 27 -36 -4 -40 -14 -2 -22
-11 -22 -23 0 -18 4 -20 33 -14 47 10 69 33 65 69 -2 22 -11 35 -30 44 -35 16
-36 32 -3 32 16 0 25 6 25 15 0 8 0 18 1 22 1 10 -9 11 -44 6z"/>
<path d="M680 435 c0 -8 5 -15 10 -15 6 0 10 7 10 15 0 8 -4 15 -10 15 -5 0
-10 -7 -10 -15z"/>
<path d="M875 404 c-16 -6 -6 -94 11 -94 10 0 14 12 14 38 0 21 5 43 12 50 9
9 8 12 -7 11 -11 0 -25 -2 -30 -5z"/>
<path d="M818 392 c-17 -3 -22 -14 -31 -74 -5 -32 9 -37 29 -10 8 10 13 12 14
5 0 -7 7 -13 15 -13 11 0 13 8 8 33 -10 51 -17 63 -35 59z m12 -47 c0 -8 -4
-15 -10 -15 -5 0 -10 7 -10 15 0 8 5 15 10 15 6 0 10 -7 10 -15z"/>
<path d="M707 373 c-4 -3 -7 -26 -7 -50 0 -38 3 -43 23 -43 35 0 44 12 44 58
0 39 -2 42 -27 42 -15 0 -30 -3 -33 -7z m38 -12 c3 -5 1 -12 -5 -16 -5 -3 -10
1 -10 9 0 18 6 21 15 7z m5 -52 c0 -5 -4 -9 -10 -9 -5 0 -10 7 -10 16 0 8 5
12 10 9 6 -3 10 -10 10 -16z"/>
<path d="M647 363 c-4 -3 -7 -26 -7 -50 0 -39 2 -43 25 -43 14 0 25 5 25 10 0
6 -7 10 -15 10 -18 0 -20 16 -4 26 8 4 7 9 -2 15 -11 7 -10 11 6 23 20 15 20
15 -1 16 -11 0 -24 -3 -27 -7z"/>
<path d="M590 338 c-7 -18 -9 -19 -9 -5 -1 9 -8 17 -16 17 -11 0 -15 -12 -15
-51 0 -54 18 -65 31 -18 7 23 7 23 8 2 1 -13 7 -23 16 -23 11 0 15 12 15 50 0
53 -14 66 -30 28z"/>
<path d="M430 311 c0 -10 -3 -33 -6 -50 -5 -24 -3 -31 10 -31 9 0 16 5 16 11
0 6 9 8 21 4 20 -7 21 -5 15 25 -3 18 -6 39 -6 46 0 8 -10 14 -25 14 -18 0
-25 -5 -25 -19z m27 -43 c-3 -7 -5 -2 -5 12 0 14 2 19 5 13 2 -7 2 -19 0 -25z"/>
<path d="M352 308 c-18 -18 -15 -36 8 -43 11 -3 20 -14 19 -23 0 -11 -3 -12
-6 -4 -2 6 -11 12 -20 12 -8 0 -13 -6 -10 -12 2 -7 17 -13 33 -13 22 0 30 5
32 22 2 14 -3 23 -17 28 -12 3 -21 14 -20 23 0 10 3 12 5 5 3 -7 12 -9 20 -6
7 3 11 9 8 14 -8 13 -38 11 -52 -3z"/>
<path d="M307 303 c-4 -3 -7 -26 -7 -50 0 -30 4 -43 14 -43 11 0 14 11 11 46
-3 47 -7 58 -18 47z"/>
<path d="M233 293 c-20 -4 -23 -10 -23 -54 0 -49 0 -49 28 -43 41 10 42 12 39
56 -2 43 -7 48 -44 41z m27 -23 c0 -5 -4 -10 -10 -10 -5 0 -10 5 -10 10 0 6 5
10 10 10 6 0 10 -4 10 -10z m0 -39 c0 -6 -4 -13 -10 -16 -5 -3 -10 1 -10 9 0
9 5 16 10 16 6 0 10 -4 10 -9z"/>
<path d="M508 283 c6 -2 18 -2 25 0 6 3 1 5 -13 5 -14 0 -19 -2 -12 -5z"/>
<path d="M771 234 c0 -11 3 -14 6 -6 3 7 2 16 -1 19 -3 4 -6 -2 -5 -13z"/>
<path d="M740 230 c0 -5 5 -10 11 -10 5 0 7 5 4 10 -3 6 -8 10 -11 10 -2 0 -4
-4 -4 -10z"/>
<path d="M540 194 c0 -8 5 -12 10 -9 6 3 10 10 10 16 0 5 -4 9 -10 9 -5 0 -10
-7 -10 -16z"/>
<path d="M450 180 c0 -5 5 -10 10 -10 6 0 10 5 10 10 0 6 -4 10 -10 10 -5 0
-10 -4 -10 -10z"/>
<path d="M380 171 c0 -8 -7 -11 -17 -6 -15 5 -16 4 -5 -6 9 -10 15 -10 24 -1
6 6 9 15 5 19 -4 3 -7 1 -7 -6z"/>
<path d="M405 170 c3 -5 8 -10 11 -10 2 0 4 5 4 10 0 6 -5 10 -11 10 -5 0 -7
-4 -4 -10z"/>
<path d="M292 155 c-11 -12 -10 -15 3 -15 8 0 15 7 15 15 0 18 -2 18 -18 0z"/>
<path d="M255 150 c-3 -5 -1 -10 4 -10 6 0 11 5 11 10 0 6 -2 10 -4 10 -3 0
-8 -4 -11 -10z"/>
<path d="M170 129 c0 -5 5 -7 10 -4 6 3 10 8 10 11 0 2 -4 4 -10 4 -5 0 -10
-5 -10 -11z"/>
</g>
</svg>
